88      a8P          db         88888888ba   88  888b      88         db         
88    ,88'          d88b        88      "8b  ""  8888b     88        d88b        
88  ,88"           d8'`8b       88      ,8P      88 `8b    88       d8'`8b       
88,d88'           d8'  `8b      88aaaaaa8P'  88  88  `8b   88      d8'  `8b      
8888"88,         d8YaaaaY8b     88""""88'    88  88   `8b  88     d8YaaaaY8b     
88P   Y8b       d8""""""""8b    88    `8b    88  88    `8b 88    d8""""""""8b    
88     "88,    d8'        `8b   88     `8b   88  88     `8888   d8'        `8b   
88       Y8b  d8'          `8b  88      `8b  88  88      `888  d8'          `8b  
-------------------------------------------------------------------------------
                    
  [2.or.3.Things.I.Know.About.Her.1967.CRITERION.DVDRip.x264.AC3-KARiNA.mkv]
            
                    -------------------------------------

[Synopsis]==================================                                                                

  2 or 3 Things I Know About Her | France | 1967 | Directed by Jean-Luc Godard
                                  
In 2 or 3 Things I Know About Her (2 ou 3 choses que je sais d’elle), Jean-Luc Godard beckons us ever closer, whispering in our ears as narrator. About what? Money, sex, fashion, the city, love, language, war: in a word, everything. Among the legendary French filmmaker’s finest achievements, the film takes as its ostensible subject the daily life of Juliette Janson (Marina Vlady), a housewife from the Paris suburbs who prostitutes herself for extra money. Yet this is only a template for Godard to spin off into provocative philosophical tangents and gorgeous images. 2 or 3 Things I Know About Her is perhaps Godard’s most revelatory look at consumer culture, shot in ravishing widescreen color by Raoul Coutard.

[ IMdB: http://www.imdb.com/title/tt0060304/ | Rating: 7.0 / 10 (1,500 votes) ]
                                     
[General]===================================                                                                 

Complete name                    : 2.or.3.Things.I.Know.About.Her.1967.CRITERION.DVDRip.x264.AC3-KARiNA.mkv
Format                           : Matroska
File size                        : 1.77 GiB
Duration                         : 1h 27mn
Overall bit rate                 : 2 888 Kbps
Source                           : Criterion NTSC DVD9

[Video]=====================================
                                 
Format                           : AVC
Codec ID                         : V_MPEG4/ISO/AVC
Bit rate                         : 2 446 Kbps
Nominal bit rate                 : 2 500 Kbps
Width                            : 720 pixels
Height                           : 480 pixels
Display aspect ratio             : 16/9
Frame rate                       : 23.976 fps
Standard                         : NTSC
Resolution                       : 24 bits
Colorimetry                      : 4:2:0
Scan type                        : Progressive
Bits/(Pixel*Frame)               : 0.295
Stream size                      : 1.49 GiB (85%)
Title                            : Track 1
Writing library                  : x264 core 65

[Audio]=====================================                              

[] Track 1

Format                           : AC-3
Codec ID                         : A_AC3
Bit rate mode                    : Constant
Bit rate                         : 192 Kbps
Channel(s)                       : 1 channel
Channel positions                : C
Sampling rate                    : 48.0 KHz
Stream size                      : 120 MiB (7%)
Title                            : Track 1
Language                         : French

[] Track 2 - Commentary by film scholar Adrian Martin

Format                           : AC-3
Codec ID                         : A_AC3
Bit rate mode                    : Constant
Bit rate                         : 192 Kbps
Channel(s)                       : 1 channel
Channel positions                : C
Sampling rate                    : 48.0 KHz
Stream size                      : 120 MiB (7%)
Title                            : Track 2 - Commentary
Language                         : English

[Subtitles]=================================

Format                           : UTF-8
Codec ID                         : S_TEXT/UTF8
Title                            : Track 1
Language                         : English

[Chapters]==================================

00:00:00.000                     : :Chapter 1
00:04:03.512                     : :Chapter 2
00:09:23.866                     : :Chapter 3
00:13:01.249                     : :Chapter 4
00:16:45.307                     : :Chapter 5
00:23:48.229                     : :Chapter 6
00:31:35.362                     : :Chapter 7
00:36:34.995                     : :Chapter 8
00:42:27.681                     : :Chapter 9
00:49:32.939                     : :Chapter 10
00:58:31.644                     : :Chapter 11
01:12:39.824                     : :Chapter 12
01:17:34.953                     : :Chapter 13
01:20:20.785                     : :Chapter 14
01:27:35.069                     : :Chapter 15

[KARiNA]===================================